<svg width="526" height="530" viewBox="0 0 526 530" fill="none" xmlns="http://www.w3.org/2000/svg">
<mask id="mask0_1_7" style="mask-type:alpha" maskUnits="userSpaceOnUse" x="0" y="0" width="526" height="530">
<rect width="526" height="530" fill="#D9D9D9"/>
</mask>
<g mask="url(#mask0_1_7)">
<path d="M16 17V-1H-2V17H16ZM16 514H-2V532H16V514ZM509 514V532H527V514H509ZM509 17H527V-1H509V17ZM77 61V43H41V61H77ZM59 463H41L63.3424 480.468L59 463ZM236 419L240.342 436.468L254 419H236ZM236 135L230.502 117.86L218 135H236ZM463 61H481L457.396 43.8944L463 61ZM445 89V107H481V89H445ZM289 419H271L284.587 436.451L289 419ZM463 463L458.587 480.451L481 463H463ZM463 304H481L466.951 286.439L463 304ZM343 277L346.951 259.439L325 277H343ZM325 304V322H361V304H325ZM-2 17V514H34V17H-2ZM16 532H509V496H16V532ZM527 514V17H491V514H527ZM509 -1H16V35H509V-1ZM41 61V463H77V61H41ZM63.3424 480.468L240.342 436.468L231.658 401.532L54.6576 445.532L63.3424 480.468ZM254 419V135H218V419H254ZM241.498 152.14L294.498 135.14L283.502 100.86L230.502 117.86L241.498 152.14ZM294.604 135.106L468.604 78.1056L457.396 43.8944L283.396 100.894L294.604 135.106ZM445 61V89H481V61H445ZM271 118V419H307V118H271ZM284.587 436.451L458.587 480.451L467.413 445.549L293.413 401.549L284.587 436.451ZM481 463V304H445V463H481ZM466.951 286.439L346.951 259.439L339.049 294.561L459.049 321.561L466.951 286.439ZM325 277V304H361V277H325Z" fill="black"/>
</g>
</svg>
